<svg width="32" height="32" viewBox="0 0 24 24" fill="none" xmlns="http://www.w3.org/2000/svg">
<path d="M15.332 8.668a3 3 0 0 0-4.125-1.109L9.109 6.46A3 3 0 0 0 4.984 4.984a3 3 0 0 0 1.476 4.125l1.098 2.098a3 3 0 0 0 4.125 1.109l2.098-1.098a3 3 0 0 0 1.109-4.125l-1.098-2.098a3 3 0 0 0 2.54-1.476z" fill="#F24E1E"/>
<path d="M8.668 15.332l-1.098 2.098a3 3 0 0 0 1.476 4.125 3 3 0 0 0 4.125-1.476l1.098-2.098a3 3 0 0 0-1.109-4.125L10.062 12.758a3 3 0 0 0-1.394 2.574z" fill="#A259FF"/>
<circle cx="12" cy="12" r="2" fill="#19BCFE"/>
</svg>