<svg width="32" height="32" viewBox="0 0 24 24" fill="none" xmlns="http://www.w3.org/2000/svg">
<path d="M11.5725 0c-.1763 0-.3098.0013-.3584.0067-.0516.0053-.2159.021-.3636.0328-3.4088.3073-6.6017 2.1463-8.624 4.9728C1.1004 6.584.3802 8.3666.1082 10.255c-.0962.659-.108.8537-.108 1.7474s.012 1.0884.108 1.7476c.652 4.506 3.8591 8.2919 8.2087 9.6945.7789.2511 1.6.4223 2.5337.5255.3636.04 1.9354.04 2.299 0 1.6117-.1783 2.9772-.577 4.3237-1.2643.2065-.1056.2464-.1337.2183-.1573-.0188-.0139-.8987-1.1938-1.9543-2.62l-1.919-2.592-2.4047-3.5583c-1.3231-1.9564-2.4117-3.556-2.4211-3.556-.0094-.0026-.0187 1.5787-.0235 3.509-.0067 3.3802-.0093 3.5162-.0516 3.596-.061.115-.108.1618-.2064.2134-.075.0374-.1408.0445-.5429.0445h-.4570l-.0869-.0582c-.0681-.0529-.1069-.1061-.1205-.1658-.0086-.0427-.0094-1.3688-.0038-3.5144l.0065-3.4482.0828-.1046c.0462-.0588.1275-.1164.1743-.1225.0516-.0075.1774-.0081.6262-.0081.6056 0 .6376.008.7114.0574.0256.0178.0744.0537.1060.0802.0316.0241.5893.8774 1.237 1.8953l1.175 1.8447 1.3648 2.1439c.7533 1.1798 1.3781 2.1644 1.3976 2.1946.0256.0341.0481.0171.1007-.0748.8301-1.4281 1.3371-3.096 1.3644-4.5079.0328-.6993.0308-.6993-.108-1.4764-.6471-3.5787-3.5802-6.8563-7.6119-8.5044-.9418-.3854-1.9674-.6127-3.1919-.7055C12.5013.0191 12.0208-.0048 11.5725 0zM16.0106 14.3075l-.0113-.0067-.0075-.0094.0188.0161z" fill="#000"/>
<path d="M12.105 1.17c-.0962-.0013-.1924-.002-.2886.004-.0962.006-.1924.018-.2886.035C7.5371 1.637 4.6297 3.43 2.6075 6.17 1.4297 7.77.709 9.55.437 11.425c-.0962.66-.108.854-.108 1.747s.012 1.087.108 1.748c.652 4.506 3.859 8.292 8.209 9.694.779.251 1.6.422 2.534.526.364.04 1.935.04 2.299 0 1.612-.178 2.977-.577 4.324-1.264.206-.106.246-.134.218-.157-.019-.014-.899-1.194-1.954-2.62l-1.919-2.592-2.405-3.558c-1.323-1.956-2.412-3.556-2.421-3.556-.009-.003-.019 1.579-.024 3.509-.006 3.38-.009 3.516-.052 3.596-.061.115-.108.162-.206.213-.075.037-.141.045-.543.045h-.457l-.087-.058c-.068-.053-.107-.106-.121-.166-.008-.043-.009-1.369-.004-3.514l.007-3.448.083-.105c.046-.059.127-.116.174-.122.052-.008.177-.008.626-.008.606 0 .638.008.711.057.026.018.074.054.106.08.032.024.589.878 1.237 1.896l1.175 1.845 1.365 2.144c.753 1.18 1.378 2.164 1.398 2.195.026.034.048.017.101-.075.83-1.428 1.337-3.096 1.364-4.508.033-.699.031-.699-.108-1.476-.647-3.579-3.58-6.856-7.612-8.504-.942-.385-1.967-.613-3.192-.706-.1362-.0106-.2724-.016-.4086-.016z" fill="#fff"/>
</svg>