<svg width="64" height="64" viewBox="0 0 64 64" fill="none" xmlns="http://www.w3.org/2000/svg">
  <rect width="64" height="64" rx="12" fill="#0EA5E9"/>
  <path d="M18 33C20.5333 25.2 25.7333 21.3 33.6 21.3C45.4 21.3 45.2 31.5 51.4 33.3C54.8667 34.3 58 32 59.8 27C57.2667 34.8 52.0667 38.7 44.2 38.7C32.4 38.7 32.6 28.5 26.4 26.7C22.9333 25.7 19.8 28 18 33Z" fill="white" fill-opacity="0.95"/>
  <path d="M6 46C8.53333 38.2 13.7333 34.3 21.6 34.3C33.4 34.3 33.2 44.5 39.4 46.3C42.8667 47.3 46 45 47.8 40C45.2667 47.8 40.0667 51.7 32.2 51.7C20.4 51.7 20.6 41.5 14.4 39.7C10.9333 38.7 7.8 41 6 46Z" fill="white"/>
</svg>
