<svg width="64" height="64" viewBox="0 0 64 64" fill="none" xmlns="http://www.w3.org/2000/svg">
  <rect width="64" height="64" rx="12" fill="#2F74C0"/>
  <path d="M18 28.5V24H46V28.5H36.4V46H31.6V28.5H18Z" fill="white"/>
  <path d="M42.2 44.6C43.8 44.6 45.2 44 46.3 42.7C47.4 41.4 47.9 39.9 47.9 38C47.9 35.6 46.8 33.7 44.9 32.6C43.5 31.8 42 31.4 39.5 31.4V35.8C41.1 35.8 42.1 36 42.9 36.5C43.7 37 44.1 37.8 44.1 38.8C44.1 39.8 43.8 40.6 43.1 41.2C42.4 41.8 41.5 42.1 40.5 42.1C39.1 42.1 38 41.5 37.2 40.4L34.1 43.1C35.5 44.9 37.6 46 40.2 46C41 46 41.6 45.9 42.2 45.7V44.6Z" fill="white"/>
</svg>
